<?xml version="1.0" encoding="utf-8"?>
<!-- Generator: Adobe Illustrator 21.0.0, SVG Export Plug-In . SVG Version: 6.00 Build 0)  -->
<svg version="1.1" id="Layer_1" xmlns="http://www.w3.org/2000/svg" xmlns:xlink="http://www.w3.org/1999/xlink" x="0px" y="0px"
	 viewBox="0 0 1000 1000" style="enable-background:new 0 0 1000 1000;" xml:space="preserve">
<style type="text/css">
	.st0{opacity:0.48;fill:#d4d4d4;}
	.st1{fill:#808080;}
	.st2{fill:#595959;}
	.st3{display:none;opacity:0.48;fill:#FFFFFF;}
	.st4{fill:#2D2D2D;}
	.st5{fill:none;stroke:#2D2D2D;stroke-width:3.14;stroke-linecap:round;stroke-linejoin:round;stroke-miterlimit:1.4142;}
</style>
<g>
	<path class="st0" d="M575.4,547.9c75.8-7.3,96.8,26.3,96.8,26.3s-0.4-38.3,49.8-64.8c43-22.8,82.5-4.9,82.5-4.9l46.4,46.4
		l86.8-108.3L1000,505c0-1.7,0-3.3,0-5C1000,223.9,776.1,0,500,0S0,223.9,0,500s223.9,500,500,500c7.6,0,15.1-0.2,22.5-0.5l-485-485
		l200-247.4l105.3,105.3l-12,85.4l-12.3,23.6L295.4,501l-15.7,8.9l-12.8-7.3l-5.2-18.2l-3.3-1.9l-62,38.6l-2,13.6l19.3,18.8l27.9,15
		l25.1,54.9l25.2,25.4c3.2,2.3,7.1,4.8,11.6,7.1l33.4,10.6c5.9,1.1,13.8,2.6,21.4,3.9l33.2,3c10.3,0,18.7,0.9,25.4,2.3l5.9,0.5
		l2.5,1.6c9.2,2.8,13,6,13,6l6.4,6.4l0,0L709,954.3c30.1-13.9,58.6-30.6,85.1-50L484.3,594.6C484.3,594.6,511.7,554.1,575.4,547.9z"
		/>
</g>
<g id="Shadows" transform="matrix(0.707107,0.707107,-0.707107,0.707107,507.545,-208.772)">
	<g transform="matrix(1,0,0,1,2.729,-1.13687e-13)">
		
			<rect x="651.6" y="90.8" transform="matrix(2.535182e-06 1 -1 2.535182e-06 879.6274 -459.886)" class="st1" width="36.3" height="238.1"/>
	</g>
	<path class="st2" d="M421.8,398.8l11.9,19.2h23.9l19-12.5l16-21.7l13.8-20.8l21.4-19l22.9-13.5H437l-9.6,13.5l-5.4,15.6
		L421.8,398.8z"/>
	<path class="st1" d="M445.6,759.8c-5.4,0.4-8.6,0-8.6,0H445.6c2.4-0.2,5.2-0.4,8.3-1l-35.8-0.1l-56.6-21.1l-30.3,9.1l-26.9,0.3
		L296,736l16.5-71.1l3.7-1l16.5,9.2l14.2-3.9l4.8-17.3l2.6-30.2l-8-25.4l-51.9-68.8H145.6l33.5,316.3H865c24-26.2,44.7-54.4,62.1-84
		H445.6z"/>
	<path class="st2" d="M927.1,759.8c15.1-25.7,27.7-52.4,37.8-79.8H591.2l-22.5,5c-2.2,1.2-4.7,2.6-7.4,4.5l-19.5,16.3
		c-1.8,1.8-3.7,3.8-5.6,5.9c-2.6,2.9-11,9.2-20,15.5l-9.9,8.3l-8,4.1c-2.2,1.5-4.2,2.8-5.6,3.8c-9,6-17.7,9.8-25.5,12.3l-6.2,3.2
		l-7,0c-3.1,0.5-5.9,0.8-8.3,1H927.1z"/>
	<path class="st2" d="M994.8,474.4H799.7l-19.8-179.9h-65.6c0,0-40.5,15.2-54.9,61.8c-16.7,54.2,10.6,81,10.6,81s-38.6-8.9-87,49.9
		c-40.7,49.4-31.4,97.4-31.4,97.4l438.1,0C995.5,548,997.2,511.1,994.8,474.4z"/>
	<path class="st1" d="M764.7,156.5l15.2,137.9l19.8,179.9h195.1c-3.9-61.7-19.3-122.8-46-179.9c-23.3-49.8-55.3-96.5-95.9-137.9
		H764.7z"/>
	<path class="st3" d="M779.9,294.5l19.8,179.9h195.1c-3.9-61.7-19.3-122.8-46-179.9H779.9z"/>
</g>
<g id="Brackets" transform="matrix(1,-3.88578e-16,3.88578e-16,1,-12.4324,-9.93988)">
	<g transform="matrix(1.4647,8.50043e-19,1.77052e-18,3.04353,-454.754,-469.686)">
		<path class="st4" d="M344.6,326.6V303l136.5-57.7v25.2L372.9,315l108.3,44.9V385L344.6,326.6z"/>
	</g>
	<g transform="matrix(-1.4647,8.50043e-19,-1.77052e-18,3.04353,1454.75,-469.686)">
		<path class="st4" d="M344.6,326.6V303l136.5-57.7v25.2L372.9,315l108.3,44.9V385L344.6,326.6z"/>
	</g>
</g>
<g id="Bat" transform="matrix(2.98282,0.532187,-0.532187,2.98282,181.677,58.7101)">
	<path class="st5" d="M123,190.6c0,0-4.6-4.5-11.9-3.7c-7.4,0.8-29.8,4.5-41.4-1.7c-11.5-6.2-16-15.8-17.3-18.4
		c-1.3-2.6-2.8-5.4-9.8-7.2s-10.8-4.6-11.2-7.1c-0.4-2.5,0-3.2,0-3.2s1.9-0.9,4.9-3.6c3-2.7,10.5-10.3,10.5-10.3s3.2-4.6,4.6-0.7
		c1.3,3.9,0.9,5.6,7.2,6.1c6.3,0.5,20.7,2.7,28.4-3.1c7.7-5.8,11.4-5.2,26.8-34.1c15.4-28.9,12.3-16.6,17-12.4
		c4.8,4.2,12.4,4.3,20.1,0c7.8-4.3,15.2-4.3,22.5-3.8c7.4,0.5,16.7,0,32.2,6.9c15.5,6.9,16.7,9.6,18.1,10.7c1.4,1.1,4.4,3.8,4.4,3.8
		s-9.4-1.1-16.2,1.2c-6.8,2.3-15.1,7.5-19.3,15.1c-5,9.3-3.4,14-3.4,14s-5.4-5.8-19.1-5.4c-8.6,0.3-31.6,4.4-40.8,22.9"/>
	<path class="st5" d="M128.6,87.9c0,0-0.4-4.1,2.8-9.9c2.5-4.5,8-9.3,10.3-10.1c5.2-1.8,4.6-1.7,4.6-1.7s-16.5-4.2-29.1,0
		c-12.6,4.2-19.8,10.7-24.5,14.5C87.9,84.5,77.2,90,73.5,85c-1.3-1.7-2-2.7-2-2.7s-1.4,4.3-1.2,10.1c0.2,5.8,1.9,29,0,34.2
		c-1.6,4.4-3.9,7.6-8,9.9"/>
</g>
</svg>
