<?xml version="1.0" encoding="utf-8"?>
<!-- Generator: Adobe Illustrator 21.0.0, SVG Export Plug-In . SVG Version: 6.00 Build 0)  -->
<svg version="1.1" id="Layer_1" xmlns="http://www.w3.org/2000/svg" xmlns:xlink="http://www.w3.org/1999/xlink" x="0px" y="0px"
	 viewBox="0 0 1000 1000" style="enable-background:new 0 0 1000 1000;" xml:space="preserve">
<path d="M500,11.7c-276.1,0-500,223.9-500,500C0,732.7,143.3,920,341.9,986.1c25,4.6,34.1-10.9,34.1-24c0-11.9-0.5-51.3-0.7-93.1
	c-139,30.2-168.4-59-168.4-59c-22.8-57.7-55.5-73.1-55.5-73.1c-45.4-31,3.4-30.4,3.4-30.4c50.2,3.5,76.6,51.5,76.6,51.5
	c44.6,76.4,117.1,54.3,145.5,41.5c4.5-32.2,17.5-54.3,31.7-66.8C297.8,720.1,181,677.2,181,485.6c0-54.6,19.5-99.2,51.4-134.2
	c-5.1-12.7-22.3-63.6,4.9-132.4c0,0,41.9-13.4,137.5,51.3c39.9-11.1,82.6-16.6,125.1-16.8c42.5,0.2,85.3,5.7,125.2,16.9
	c95.4-64.8,137.4-51.3,137.4-51.3c27.3,68.9,10.1,119.7,5,132.3c32,35,51.4,79.6,51.4,134.2C819,677.7,702,720,590.6,732.4
	c18,15.5,33.9,45.9,33.9,92.5c0,66.8-0.7,120.7-0.7,137.2c0,13.3,9.1,28.9,34.4,24C856.9,919.9,1000,732.5,1000,511.7
	C1000,235.6,776.1,11.7,500,11.7z"/>
</svg>
