<svg id="Layer_1" data-name="Layer 1" xmlns="http://www.w3.org/2000/svg" viewBox="0 0 1000 1000"><defs><style>.cls-1{fill:#f25d46;}.cls-2{fill:#fbf6f3;}.cls-3{fill:#e93a28;}.cls-4{fill:none;}</style></defs><title>Java</title><rect class="cls-1" width="1000" height="1000"/><path class="cls-2" d="M556.152,125.813c6.2,41.608-12.059,74.531-37.133,105.132-18.364,22.413-40.974,40.188-62.944,58.722-14.472,12.209-27.252,26-36.792,42.613-13.768,23.974-13.78,48.247-2.371,72.95,6.431,13.925,15.19,26.438,23.873,38.987,8.627,12.469,17.3,24.907,23.812,38.673a10.538,10.538,0,0,1,.5,2.611c-27.059-24.822-54.155-49.635-75.058-80.18-8.661-12.656-15.769-26.085-18.117-41.615-2.95-19.507,3.014-36.157,14.935-51.4,16.478-21.075,37.038-37.7,57.775-54.164,24.429-19.393,49.544-38.019,69.527-62.346,23.254-28.31,32.945-60.283,25.86-96.745-.411-2.117-1.332-4.3-.2-7.291C549.126,101.618,552.895,113.589,556.152,125.813Z"/><path class="cls-2" d="M474.612,759.437c24.269-.352,48.5-1.745,72.677-3.638,32.029-2.509,63.994-5.792,95.524-12.263,12.989-2.666,25.941-5.553,37.647-12.213,9.908-5.637,11.613-9.426,9.164-20.248,11.705,3.813,14.142,13.252,5.314,21.56-8.693,8.181-19.594,12.575-30.607,16.507-34.686,12.382-70.731,18.6-107.125,23.058-73.434,8.993-147.052,9.077-220.7,3.514-36.062-2.724-71.984-7.06-107.63-13.354-8-1.413-15.541-4.308-22.918-7.635-9.013-8.783-8.546-15.227,2.136-23.56,9.83-7.668,20.937-13.042,32.656-17.2,2.063-.733,4.4-1.208,5.566-3.373.487-.909-.159-1.693-1.088-1.947a1.37,1.37,0,0,0-1.194.5c-.477.812-.5,1.731.6,2.087,2.293.745,4.439-.175,6.532-.877,16.793-5.634,33.97-8.533,51.723-7.363,3.6.237,7.7-.826,9.969,3.39a139.678,139.678,0,0,0-58.548,16.177c-3.9,2.1-8.714,4.493-8.618,9.519.1,5.35,5.578,6.381,9.539,8.318a10.411,10.411,0,0,0,1.256.485c31.8,10.7,64.767,14.243,98.018,16.079a25.154,25.154,0,0,0,9.43.287,512.7,512.7,0,0,0,51.314,2.387,291.638,291.638,0,0,0,35.02.065l4.111-.014A116.092,116.092,0,0,0,474.612,759.437Z"/><path class="cls-2" d="M469.3,383.417c-5.514-27.289,1.761-50.991,20.01-71.661,10.929-12.379,23.744-22.506,37.549-31.4,24.443-15.746,51.413-26.18,78.283-36.793,1.393-.55,3.177.228,4.422-1.1l1.256-.6,1.389-.274c2.726.154,4.872.709,2.856,4.135-32.185,19.128-64.04,38.73-89.648,66.672-20.326,22.178-22.189,41.859-6.9,67.877,8.062,13.719,18.846,25.624,26.315,39.727a60.92,60.92,0,0,1,2.428,33.363l-.054.207c-1.44,3.012-2.9,6.015-4.315,9.043-6.114,13.125-16.708,22.588-26.621,32.609l-.033.022c-2.5.167-3.6,2.519-5.546,3.549-2.769,1.469-5.5,6.01-8.351,3.436-2.509-2.261,1.452-5.509,2.932-8,10.552-17.767,10.536-35.367-1.192-52.38-7.459-10.82-15.8-21.031-23.751-31.515l-.084-.233a6.26,6.26,0,0,0-2.75-5.225l-.012-.022Z"/><path class="cls-2" d="M488.161,530.129c31.914-1.3,63.535-5.422,95.147-9.716,11.253-1.528,22.354-4.152,32.995-4.516-6.389,3.536-13.636,7.1-20.421,11.395-14.565,9.221-31.351,10.73-47.565,13.37a901.629,901.629,0,0,1-196.18,9.857c-4.7-.265-9.409-.374-14.114-.556-19.595-2.3-39.313-3.775-58.488-8.873-5.657-1.5-11.245-3.181-16.259-6.26-7.411-4.551-7.616-10.13-.514-15.265,7.523-5.44,16.2-8.726,24.7-12.123,25.117-10.037,51.1-16.731,78.147-19.06a110.08,110.08,0,0,1,15.639.215c-4.9,1.459-9.8,2.9-14.7,4.368-15.673,4.689-31.5,9.012-46.1,16.592-4.566,2.37-11.3,4.434-10.134,10.894,1.021,5.656,7.512,6.276,12.494,7.378,32.768,7.247,66,5.855,99.189,5.22C444.115,533.618,466.14,531.918,488.161,530.129Z"/><path class="cls-2" d="M394.87,670.988c17.257,3.5,34.783,3.779,52.277,4.127,28.21.562,56-3.383,83.6-8.721,5.993-1.159,11.231-1.1,16.651,2.345,8.143,5.175,17.031,9.034,25.912,12.829,1.53.654,4.1.71,3.96,2.96-.131,2.083-2.621,2.1-4.195,2.732-41.938,16.714-85.6,23.207-130.572,22.182a282.033,282.033,0,0,1-84.4-14.422c-2.887-.974-4.5-3.491-7.28-4.272l-1.626-.932q-1.244-.58-2.489-1.167a3.418,3.418,0,0,0-.419.705c-.033.1.163.276.255.417.6-1.5-.4-1.886-1.52-2.183l-8.417-10.1c-.439-12.957,15.836-26.659,29.718-25.02-4.51,8.939-3.049,12.154,6.891,15.313,5.762,1.831,11.593,3.166,17.7,2.839Z"/><path class="cls-2" d="M351.593,571.152c-1.214,1.827-2.372,3.694-3.65,5.475-6.334,8.831-4.911,14.234,5.24,17.945,13.287,4.857,27.411,4.573,41.225,5.785,54.105,4.747,107.7.5,160.844-10.2,5.24-1.055,9.457-.531,13.512,3.4,3,2.916,6.868,5,10.516,7.179,3.44,2.052,7.1,3.738,11.232,5.881-3.815,3.076-8.019,3.615-11.925,4.618A561.783,561.783,0,0,1,400.9,627.787c-18.87-1.242-37.416-4.527-55.894-8.335-5.305-2.3-10.691-4.44-15.885-6.972a39.6,39.6,0,0,1-8.458-5.426c-7.531-6.484-7.6-13.077-.27-20.013,6.142-5.808,13.746-9.207,21.467-12.349,2.9-1.179,5.745-2.477,8.615-3.72l1.285.215Z"/><path class="cls-3" d="M354.5,756.954c-33.251-1.835-66.222-5.375-98.018-16.079a10.411,10.411,0,0,1-1.256-.485c-3.961-1.937-9.437-2.968-9.539-8.318-.1-5.026,4.715-7.422,8.618-9.519a139.678,139.678,0,0,1,58.548-16.177,17.3,17.3,0,0,1,7.559,5.356c10.984,14.016,23.265,27.021,32.847,42.125A17.812,17.812,0,0,1,354.5,756.954Z"/><path class="cls-3" d="M421.99,533.049c-33.189.635-66.421,2.027-99.189-5.22-4.983-1.1-11.473-1.722-12.494-7.378-1.166-6.46,5.569-8.524,10.134-10.894,14.6-7.58,30.428-11.9,46.1-16.592,4.9-1.466,9.807-2.909,14.7-4.368,10.623,8.585,18.9,19.453,28.053,29.442C413.7,522.84,420.606,525.677,421.99,533.049Z"/><path class="cls-3" d="M390.915,670.623c-6.1.327-11.935-1.008-17.7-2.839-9.94-3.159-11.4-6.373-6.891-15.313-13.882-1.639-30.157,12.062-29.718,25.02-4.1-3.631-4.686-10.759-.522-13.792,9.09-6.624,18.038-13.639,29.7-15.532,2.873-.467,4.583-.253,6.671,2.232C378.322,657.381,384.724,663.913,390.915,670.623Z"/><path class="cls-3" d="M351.757,571.187l-1.285-.215.458-1.338Z"/><path class="cls-3" d="M345.026,687.588c1.125.3,2.121.684,1.52,2.183Z"/><path class="cls-2" d="M297.274,792.869c20.214,2.47,38.391,4.9,56.685,6.346a1118.355,1118.355,0,0,0,150.206,1.816c45.845-2.53,91.351-7.49,136.288-17.007,25.518-5.4,50.634-12.178,73.968-24.334,5.944-3.1,10.9-7.615,16.724-11.463-.619,8.834-5.529,14.791-11.37,20-11.618,10.367-25.6,16.47-40.168,21.327-30.425,10.146-61.89,15.283-93.64,18.75-49.459,5.4-99.107,6.707-148.8,5.307-36.843-1.038-73.668-2.933-109.9-10.519C317.551,801.059,307.7,799.239,297.274,792.869Z"/><path class="cls-2" d="M634.881,492.389c31.2-23.8,82.86-9.476,94.623,26.029,6.57,19.829-.438,37.124-13.061,52.459-14.5,17.62-33.818,28.53-54.261,37.657a309.053,309.053,0,0,1-36.039,12.98c-2.241.683-4.538,1.518-7.843.864,4.4-4.94,9.911-6.5,14.543-9.3,19.275-11.657,37.982-24.011,52.5-41.591,8.692-10.524,15.36-22.009,16.351-36.18,2.259-32.287-30.889-49.326-52.137-44.471C645.025,491.875,640.538,493.577,634.881,492.389Z"/><path class="cls-1" d="M480.329,410.339c7.947,10.484,16.291,20.695,23.751,31.515,11.728,17.013,11.744,34.613,1.192,52.38-1.48,2.491-5.441,5.739-2.932,8,2.855,2.574,5.583-1.968,8.351-3.436,1.942-1.03,3.045-3.382,5.546-3.549-5.487,6.215-10.948,12.5-18.954,15.6-1.962.757-4.676,2.031-6.119-.363-1.26-2.089.963-3.531,2.438-4.935,13.261-12.615,18.655-27.959,16.156-46.149a18.993,18.993,0,0,0-3.152-8.06c-7.364-10.88-13.858-22.415-23-32C481.12,416.731,479.487,414.045,480.329,410.339Zm19.378,95.815a10.246,10.246,0,0,0,1.1-1.679c.061-.155-.461-.756-.565-.72-.481.167-1.106.4-1.289.785C498.828,504.814,499.324,505.382,499.707,506.154Z"/><path class="cls-1" d="M516.269,495.227c9.913-10.021,20.507-19.484,26.621-32.609,1.411-3.028,2.876-6.031,4.315-9.043,1.287,5.67-2.216,9.541-4.7,14.072-5.267,9.608-12.716,17.22-20.419,24.708C520.47,493.927,518.8,495.471,516.269,495.227Z"/><path class="cls-1" d="M547.26,453.368a60.92,60.92,0,0,0-2.428-33.363c3.118,1.309,4.212,4.66,4.386,7.049C549.861,435.858,552.709,444.982,547.26,453.368Z"/><path class="cls-1" d="M469.3,383.417l8.182,21.441C472.643,398.516,468.666,391.847,469.3,383.417Z"/><path class="cls-1" d="M450.268,759.693a291.655,291.655,0,0,1-35.02-.065A110.522,110.522,0,0,1,450.268,759.693Z"/><path class="cls-1" d="M474.612,759.437a116.092,116.092,0,0,1-20.233.241A41.429,41.429,0,0,1,474.612,759.437Z"/><path class="cls-1" d="M477.494,404.881a6.26,6.26,0,0,1,2.75,5.225C477.92,409.1,477.2,407.258,477.494,404.881Z"/><path class="cls-1" d="M610.82,241.869l-1.256.6Z"/><path class="cls-1" d="M349.2,689.815l1.626.932Z"/><path class="cls-2" d="M499.707,506.154c-.383-.771-.879-1.34-.75-1.615.183-.389.808-.617,1.289-.785.1-.036.626.566.565.72A10.246,10.246,0,0,1,499.707,506.154Z"/><path class="cls-4" d="M634.881,492.389c5.658,1.188,10.144-.514,14.677-1.549,21.248-4.855,54.4,12.184,52.137,44.471-.991,14.171-7.659,25.656-16.351,36.18-14.52,17.58-33.227,29.935-52.5,41.591-4.631,2.8-10.141,4.357-14.543,9.3,3.3.654,5.6-.181,7.843-.864a309.05,309.05,0,0,0,36.039-12.98c20.442-9.127,39.757-20.037,54.261-37.657,12.623-15.335,19.631-32.631,13.061-52.459C717.74,482.913,666.076,468.588,634.881,492.389Z"/><path class="cls-4" d="M640.454,784.024c-44.937,9.517-90.443,14.477-136.288,17.007a1118.367,1118.367,0,0,1-150.206-1.816c-18.294-1.45-36.471-3.876-56.685-6.346,10.426,6.37,20.277,8.189,29.99,10.223,36.234,7.587,73.059,9.482,109.9,10.519,49.693,1.4,99.341.093,148.8-5.307,31.75-3.466,63.215-8.6,93.64-18.75,14.565-4.857,28.55-10.96,40.168-21.327,5.84-5.211,10.751-11.168,11.37-20-5.82,3.848-10.779,8.366-16.724,11.463C691.088,771.846,665.972,778.619,640.454,784.024Z"/><path class="cls-3" d="M369.462,757.761c-1.843-.163-3.685-.332-5.527-.52A31.882,31.882,0,0,0,369.462,757.761Z"/><path class="cls-3" d="M1000,869.569q-6.591-11.284-13.247-22.53-21.3-35.87-42.319-71.909c-13.924-23.806-27.666-47.719-41.624-71.5-10.439-17.79-21.155-35.417-31.636-53.183-8.755-14.839-17.335-29.78-26.016-44.662-8.126-13.932-16.217-27.885-24.445-41.757-7.325-12.35-14.974-24.509-22.2-36.914-14-24.035-27.71-48.242-41.73-72.267C745.6,435.678,734.07,416.716,722.812,397.6c-9.209-15.64-18.173-31.426-27.379-47.068-11.028-18.737-22.262-37.354-33.287-56.092Q647.3,269.205,632.752,243.8c-2.266-3.958-4.627-4.876-8.667-2.36-2.794,1.74-5.415,4.137-9.018,4.289-32.186,19.129-64.041,38.731-89.649,66.673-20.326,22.178-22.189,41.859-6.9,67.877,8.062,13.719,18.846,25.624,26.316,39.729,3.117,1.307,4.211,4.657,4.386,7.047.643,8.8,3.491,17.928-1.958,26.314l-.055.209c1.287,5.668-2.216,9.539-4.7,14.07-5.267,9.608-12.716,17.22-20.419,24.708-1.617,1.572-3.286,3.116-5.818,2.871l-.034.022c-5.486,6.215-10.947,12.5-18.953,15.6-1.962.758-4.676,2.031-6.119-.362-1.26-2.089.963-3.531,2.438-4.935,13.261-12.615,18.654-27.959,16.156-46.149a18.993,18.993,0,0,0-3.152-8.06c-7.364-10.88-13.858-22.415-23-32-2.485-2.607-4.118-5.292-3.277-9l-.085-.234c-2.324-1-3.041-2.846-2.75-5.224l-.013-.023c-4.838-6.341-8.816-13.011-8.182-21.44-5.514-27.289,1.761-50.991,20.01-71.661,10.928-12.379,23.744-22.506,37.549-31.4,24.443-15.746,51.413-26.18,78.283-36.793,1.393-.55,3.177.228,4.423-1.1l1.255-.6,1.389-.274c1.116-2.386.926-4.454-.349-6.964-14.016-27.586-27.752-55.313-41.8-82.882-4.451-8.735-8.118-17.912-13.908-25.936,6.2,41.608-12.059,74.531-37.133,105.132-18.364,22.413-40.974,40.188-62.944,58.722-14.472,12.209-27.252,26-36.792,42.613-13.768,23.974-13.78,48.247-2.371,72.95,6.431,13.926,15.19,26.438,23.873,38.987,8.627,12.469,17.3,24.907,23.812,38.673a10.538,10.538,0,0,1,.5,2.611q12.362,15.512,24.714,31.037c2.226,2.808,5.735,5.516,6.172,8.619.74,5.251-6.37,1.255-7.821,4.972,31.914-1.3,63.535-5.422,95.147-9.716,11.253-1.528,22.354-4.152,32.995-4.516-6.389,3.536-13.636,7.1-20.421,11.395-14.565,9.221-31.351,10.73-47.565,13.37a901.629,901.629,0,0,1-196.18,9.857c-4.7-.265-9.409-.374-14.114-.556,2.822,2.15,6.008,3.61,8.775,6.049,13.806,12.168,25.008,27.028,39.738,38.2.931.707,2.04,1.5,1.447,2.681-.8,1.594-2.421,1.172-3.432.309-2.725-2.328-5.118-5.058-7.915-7.286-8.16-6.5-14.656-15.239-25.042-18.766-1.214,1.827-2.372,3.694-3.65,5.475-6.334,8.831-4.911,14.234,5.24,17.945,13.286,4.857,27.411,4.573,41.225,5.785,54.1,4.747,107.7.5,160.844-10.2,5.24-1.055,9.457-.531,13.512,3.4,3,2.916,6.868,5,10.516,7.179,3.44,2.052,7.1,3.738,11.232,5.881-3.815,3.076-8.019,3.615-11.925,4.618A561.782,561.782,0,0,1,400.9,627.787c-18.87-1.242-37.416-4.527-55.894-8.335,1.642,2.689,4.8,4.62,7.127,4.445,9.28-.7,13.206,5.539,17.573,11.78,8.285,11.843,16.768,23.548,25.169,35.31,17.257,3.5,34.783,3.779,52.277,4.127,28.21.562,56-3.383,83.6-8.721,5.993-1.159,11.231-1.1,16.651,2.345,8.143,5.175,17.031,9.034,25.912,12.829,1.53.654,4.1.71,3.96,2.96-.131,2.083-2.621,2.1-4.195,2.732-41.938,16.714-85.6,23.206-130.572,22.182a282.032,282.032,0,0,1-84.4-14.422c-2.886-.974-4.5-3.491-7.281-4.273l-1.625-.931q-1.244-.58-2.489-1.167a16.633,16.633,0,0,0,1.629,2.909q25.191,29.353,50.436,58.659c1.406,1.636,4.142,3.05,3.077,5.487-1.217,2.785-4.336,1.738-6.656,1.593-1.713-.108-3.386-1.006-5.056-1.61-3.951-1.428-8.049-1.755-11.8.079a19.824,19.824,0,0,1-8.881,1.995c15.229,1.344,30.5,1.841,45.786,1.867a110.521,110.521,0,0,1,35.02.065l4.112-.014a41.427,41.427,0,0,1,20.232-.241c24.269-.352,48.5-1.745,72.677-3.638,32.029-2.509,63.994-5.792,95.524-12.263,12.989-2.666,25.941-5.553,37.647-12.213,9.908-5.637,11.613-9.426,9.164-20.248,11.705,3.813,14.142,13.252,5.314,21.56-8.693,8.181-19.594,12.575-30.607,16.507-34.686,12.382-70.731,18.6-107.125,23.058-73.434,8.993-147.052,9.077-220.7,3.514-36.062-2.724-71.984-7.06-107.63-13.354-8-1.413-15.541-4.308-22.918-7.635.982,2.74,1.557,5.716,3.006,8.178,8.867,15.061,17.924,30.01,26.932,44.987q36.933,61.409,73.854,122.826c13.787,23.041,27.391,46.192,41.091,69.285H1000ZM719.776,768.228c-11.618,10.367-25.6,16.47-40.168,21.327-30.425,10.146-61.89,15.283-93.64,18.75-49.459,5.4-99.107,6.707-148.8,5.307-36.843-1.038-73.668-2.933-109.9-10.519-9.714-2.034-19.565-3.854-29.99-10.223,20.214,2.47,38.391,4.9,56.685,6.346a1118.367,1118.367,0,0,0,150.206,1.816c45.845-2.53,91.351-7.49,136.288-17.007,25.518-5.4,50.634-12.178,73.968-24.334,5.944-3.1,10.9-7.615,16.724-11.463C730.527,757.061,725.616,763.017,719.776,768.228Zm-3.333-197.351c-14.5,17.62-33.818,28.53-54.261,37.657a309.05,309.05,0,0,1-36.039,12.98c-2.241.683-4.538,1.518-7.843.864,4.4-4.94,9.911-6.5,14.543-9.3,19.275-11.657,37.982-24.011,52.5-41.591,8.692-10.524,15.36-22.009,16.351-36.18,2.259-32.287-30.889-49.326-52.137-44.471-4.533,1.036-9.02,2.738-14.677,1.549,31.2-23.8,82.86-9.476,94.623,26.029C736.073,538.247,729.065,555.543,716.442,570.878Z"/></svg>