<svg id="Layer_1" data-name="Layer 1" xmlns="http://www.w3.org/2000/svg" viewBox="0 0 1000 1000"><defs><style>.cls-1{fill:#d4d4d4;}.cls-2{fill:#fff;}.cls-3{fill:#82d4f9;}.cls-4{fill:#b2e4fb;}.cls-5{fill:#059be4;}.cls-6{fill:#4fc2f6;}.cls-7{fill:#0b7abe;}.cls-8{fill:#02579b;}.cls-9{fill:#0388d0;}.cls-10{fill:#049be4;}</style></defs><title>stackExchange</title><rect class="cls-1" width="1000" height="1000"/><polygon class="cls-2" points="752 202 1000 450 1000 1000 552 1000 253.497 700.628 776 603 259.5 603.5 229 573 776 573 776 468 261.75 468.75 229 436 776 436 776 331 262 332 229 299 752 202"/><path class="cls-3" d="M737.068,299.5H776.5v-40c0-.979-.039-1.949-.074-2.919Z"/><path class="cls-4" d="M696.5,179.5h-387a80,80,0,0,0-80,80v40H737.068l39.358-42.919A79.987,79.987,0,0,0,696.5,179.5Z"/><polygon class="cls-5" points="776.5 436 776.5 331.5 707.723 331.5 611.895 436 776.5 436"/><polygon class="cls-6" points="229.5 436 611.895 436 707.723 331.5 229.5 331.5 229.5 436"/><path class="cls-7" d="M229.5,643.5a80,80,0,0,0,80,80h38.751l110.043-120H229.5Z"/><path class="cls-8" d="M549,723.5l.5,113,103.259-113H696.5a80,80,0,0,0,80-80v-40H458.294l-110.043,120Z"/><polygon class="cls-9" points="776.5 573 776.5 468.5 582.091 468.5 486.263 573 776.5 573"/><polygon class="cls-10" points="229.5 573 486.263 573 582.091 468.5 229.5 468.5 229.5 573"/></svg>